name ./resultDataOpenSim/trcMotMarkerGrf/sub10/grf-02-08.mot
datacolumns 19
datarows 12
range 1.41600000 1.46000000
endheader

                time	     ground_force_vx	     ground_force_vy	     ground_force_vz	     ground_force_px	     ground_force_py	     ground_force_pz	   l_ground_force_vx	   l_ground_force_vy	   l_ground_force_vz	   l_ground_force_px	   l_ground_force_py	   l_ground_force_pz	     ground_torque_x	     ground_torque_y	     ground_torque_z	   l_ground_torque_x	   l_ground_torque_y	   l_ground_torque_z	
          1.41600000	        -59.63190455	        490.63965226	        -33.25483148	          0.86459267	          0.00000000	          0.05353290	          0.00000000	          0.00000000	          0.00000000	          0.00000000	          0.00000000	          0.00000000	          0.00000000	         -0.48757335	          0.00000000	          0.00000000	          0.00000000	          0.00000000	
          1.42000000	        -55.23682151	        477.64359599	        -34.05809466	          0.86715233	          0.00000000	          0.05376440	          0.00000000	          0.00000000	          0.00000000	          0.00000000	          0.00000000	          0.00000000	          0.00000000	         -0.34669476	          0.00000000	          0.00000000	          0.00000000	          0.00000000	
          1.42400000	        -50.26035860	        465.46222766	        -34.49458379	          0.86951752	          0.00000000	          0.05402124	          0.00000000	          0.00000000	          0.00000000	          0.00000000	          0.00000000	          0.00000000	          0.00000000	         -0.24449165	          0.00000000	          0.00000000	          0.00000000	          0.00000000	
          1.42800000	        -45.24253556	        454.05223248	        -34.33912925	          0.87173514	          0.00000000	          0.05428898	          0.00000000	          0.00000000	          0.00000000	          0.00000000	          0.00000000	          0.00000000	          0.00000000	         -0.17426536	          0.00000000	          0.00000000	          0.00000000	          0.00000000	
          1.43200000	        -40.76531019	        443.46284118	        -33.51582416	          0.87388282	          0.00000000	          0.05453898	          0.00000000	          0.00000000	          0.00000000	          0.00000000	          0.00000000	          0.00000000	          0.00000000	         -0.12398917	          0.00000000	          0.00000000	          0.00000000	          0.00000000	
          1.43600000	        -37.28260201	        433.78100883	        -32.09676361	          0.87602078	          0.00000000	          0.05473611	          0.00000000	          0.00000000	          0.00000000	          0.00000000	          0.00000000	          0.00000000	          0.00000000	         -0.08056322	          0.00000000	          0.00000000	          0.00000000	          0.00000000	
          1.44000000	        -35.00656921	        425.04802928	        -30.27177327	          0.87815789	          0.00000000	          0.05486062	          0.00000000	          0.00000000	          0.00000000	          0.00000000	          0.00000000	          0.00000000	          0.00000000	         -0.03350517	          0.00000000	          0.00000000	          0.00000000	          0.00000000	
          1.44400000	        -33.86982169	        417.24260129	        -28.30307405	          0.88026503	          0.00000000	          0.05491904	          0.00000000	          0.00000000	          0.00000000	          0.00000000	          0.00000000	          0.00000000	          0.00000000	          0.02291377	          0.00000000	          0.00000000	          0.00000000	          0.00000000	
          1.44800000	        -33.55287339	        410.32914850	        -26.47472467	          0.88229579	          0.00000000	          0.05493587	          0.00000000	          0.00000000	          0.00000000	          0.00000000	          0.00000000	          0.00000000	          0.00000000	          0.08935454	          0.00000000	          0.00000000	          0.00000000	          0.00000000	
          1.45200000	        -33.56547459	        404.29304676	        -25.04183002	          0.88418466	          0.00000000	          0.05493697	          0.00000000	          0.00000000	          0.00000000	          0.00000000	          0.00000000	          0.00000000	          0.00000000	          0.16253239	          0.00000000	          0.00000000	          0.00000000	          0.00000000	
          1.45600000	        -33.36648150	        399.12206140	        -24.18852702	          0.88584918	          0.00000000	          0.05494360	          0.00000000	          0.00000000	          0.00000000	          0.00000000	          0.00000000	          0.00000000	          0.00000000	          0.23709504	          0.00000000	          0.00000000	          0.00000000	          0.00000000	
          1.46000000	        -32.49415094	        394.76676809	        -24.00460156	          0.88720073	          0.00000000	          0.05497675	          0.00000000	          0.00000000	          0.00000000	          0.00000000	          0.00000000	          0.00000000	          0.00000000	          0.30762515	          0.00000000	          0.00000000	          0.00000000	          0.00000000	
